<?xml version="1.0" standalone="no"?><!DOCTYPE svg PUBLIC "-//W3C//DTD SVG 1.1//EN" "http://www.w3.org/Graphics/SVG/1.1/DTD/svg11.dtd"><svg t="1539155672157" class="icon" style="" viewBox="0 0 1024 1024" version="1.1" xmlns="http://www.w3.org/2000/svg" p-id="1254" xmlns:xlink="http://www.w3.org/1999/xlink" width="30" height="30"><defs><style type="text/css"></style></defs><path d="M595.393939 81.842424c-46.545455 0-87.143434 31.806061-95.676767 76.8 0 0-13.834343 70.464646-21.074748 95.806061-11.894949 41.761616-53.527273 87.919192-83.652525 102.658586-22.755556 11.248485-107.313131 11.377778-112.484848 11.377777h-115.070708C135.757576 368.484848 110.028283 394.084848 110.028283 425.890909v459.248485c0 31.676768 25.6 57.406061 57.40606 57.406061h529.842425c85.20404 0 157.608081-62.319192 170.278788-146.618182L911.90303 500.363636c10.472727-69.430303-43.313131-131.749495-113.519192-131.749495h-130.585858s19.393939-64.258586 29.220202-172.735353c4.913131-54.949495-34.00404-107.313131-91.151515-113.260606-3.490909-0.517172-6.981818-0.775758-10.472728-0.775758zM339.523232 885.010101V424.080808c37.624242-2.456566 64.775758-7.757576 80.808081-15.773737 42.278788-20.945455 96.323232-78.351515 113.389899-138.343435 7.628283-26.763636 20.686869-92.961616 22.238384-100.719192 3.361616-17.325253 19.911111-30.125253 39.30505-30.125252 1.551515 0 3.10303 0.129293 4.654546 0.258586 27.280808 2.844444 41.890909 28.70303 39.951515 50.941414-9.050505 100.460606-26.892929 160.969697-27.151515 161.357576l-22.367677 73.955555h208.032323c16.937374 0 32.452525 7.111111 43.571718 19.911111 11.119192 12.8 15.773737 29.220202 13.187878 46.028283l-44.218181 295.563637c-8.533333 56.630303-56.242424 97.745455-113.519192 97.745454H339.523232z m-172.088889 0V425.761616h114.682829v459.248485H167.434343z m0 0" fill="#ffffff" p-id="1255"></path></svg>