<?xml version="1.0" standalone="no"?><!DOCTYPE svg PUBLIC "-//W3C//DTD SVG 1.1//EN" "http://www.w3.org/Graphics/SVG/1.1/DTD/svg11.dtd"><svg t="1538705725112" class="icon" style="" viewBox="0 0 1024 1024" version="1.1" xmlns="http://www.w3.org/2000/svg" p-id="1346" xmlns:xlink="http://www.w3.org/1999/xlink" width="30" height="30"><defs><style type="text/css"></style></defs><path d="M486.4 893.44c-48.64 0-82.432-25.6-82.432-61.952 0-41.472-17.408-121.344-66.048-170.496-8.192-6.656-15.36-14.336-21.504-22.528-9.728 4.608-20.992 7.168-32.256 7.168H218.624c-42.496 0-77.312-34.816-77.312-77.312V259.584c0-42.496 34.816-77.312 77.312-77.312h66.048c11.264 0 22.016 2.56 31.744 6.656 22.016-31.232 58.368-51.712 99.328-51.712h198.144c139.776 0 253.44 113.664 253.44 253.44v176.128c0 67.072-54.272 121.344-121.344 121.344h-142.848v98.816c0 33.792-14.336 62.976-40.96 82.432-20.992 15.36-48.128 24.064-75.776 24.064zM470.528 824.32c8.192 3.072 27.136 4.608 44.544-4.096 18.944-9.216 20.992-23.552 20.992-33.28V655.36c0-18.432 14.848-33.28 33.28-33.28h176.128c30.208 0 54.784-24.576 54.784-54.784V391.168c0-102.912-83.968-186.88-186.88-186.88H415.232c-27.648 0-50.176 20.48-54.272 46.592 0.512 3.072 0.512 5.632 0.512 8.704v308.224c0 2.56 0 5.12-0.512 7.68 2.048 13.312 9.216 25.6 19.968 34.304 1.024 1.024 2.048 1.536 2.56 2.56 66.048 65.536 85.504 163.328 87.04 211.968zM218.624 248.832c-6.144 0-10.752 4.608-10.752 10.752v308.224c0 6.144 4.608 10.752 10.752 10.752h66.048c4.096 0 8.192-2.56 9.728-6.144V259.072v-4.096c-1.536-3.584-5.632-6.144-9.728-6.144H218.624z" fill="" p-id="1347"></path></svg>