<?xml version="1.0" standalone="no"?><!DOCTYPE svg PUBLIC "-//W3C//DTD SVG 1.1//EN" "http://www.w3.org/Graphics/SVG/1.1/DTD/svg11.dtd"><svg t="1535767570898" class="icon" style="" viewBox="0 0 1024 1024" version="1.1" xmlns="http://www.w3.org/2000/svg" p-id="1378" xmlns:xlink="http://www.w3.org/1999/xlink" width="40" height="40"><defs><style type="text/css"></style></defs><path d="M470.7 332.9h410v539.2h-410z" fill="#FFCE00" p-id="1379"></path><path d="M598 905.8H188.3c-24.9 0-45-20.1-45-45V163.2c0-24.9 20.1-45 45-45h591.6c24.9 0 45 20.1 45 45v523.2c0 12.3-5 24-13.9 32.5L629.1 893.3c-8.4 8-19.5 12.5-31.1 12.5z m-364.7-90h346.6l155-148.6v-459H233.3v607.6z" fill="#242F44" p-id="1380"></path><path d="M585.6 380.7H336.2c-24.9 0-45-20.1-45-45s20.1-45 45-45h249.3c24.9 0 45 20.1 45 45s-20.1 45-44.9 45zM585.6 551.7H336.2c-24.9 0-45-20.1-45-45s20.1-45 45-45h249.3c24.9 0 45 20.1 45 45s-20.1 45-44.9 45zM585.6 722.7H336.2c-24.9 0-45-20.1-45-45s20.1-45 45-45h249.3c24.9 0 45 20.1 45 45s-20.1 45-44.9 45z" fill="#242F44" p-id="1381"></path></svg>