?xml version="1.0" standalone="no"?><!DOCTYPE svg PUBLIC "-//W3C//DTD SVG 1.1//EN" "http://www.w3.org/Graphics/SVG/1.1/DTD/svg11.dtd"><svg t="1537018049082" class="icon" style="" viewBox="0 0 1024 1024" version="1.1" xmlns="http://www.w3.org/2000/svg" p-id="8670" xmlns:xlink="http://www.w3.org/1999/xlink" width="20" height="20"><defs><style type="text/css"></style></defs><path d="M257.3 912h-79.7c-35 0-63.7-28.7-63.7-63.7V559.7c0-35 28.7-63.7 63.7-63.7h79.7c35 0 63.7 28.7 63.7 63.7v288.7c0 34.9-28.7 63.6-63.7 63.6z" fill="#8274E8" p-id="8671"></path><path d="M257.3 896h-79.7c-43.9 0-79.7-35.7-79.7-79.7V527.7c0-43.9 35.7-79.7 79.7-79.7h79.7c43.9 0 79.7 35.7 79.7 79.7V726c0 8.8-7.2 16-16 16s-16-7.2-16-16V527.7c0-26.3-21.4-47.7-47.7-47.7h-79.7c-26.3 0-47.7 21.4-47.7 47.7v288.7c0 26.3 21.4 47.7 47.7 47.7h79.7c26.3 0 47.7-21.4 47.7-47.7 0-8.8 7.2-16 16-16s16 7.2 16 16c0 43.9-35.7 79.6-79.7 79.6z" fill="" p-id="8672"></path><path d="M649.8 349.1l12.3-62.1c4.7-23.8 2.4-47-5.3-67.9C639.4 171.8 606 142 551 142c-59.9 0-111.5 42.3-123.1 101.1l-25.4 127.8c-12.3 62-18.5 125-18.5 188.2v181c0 86.1 69.8 156 156 156h66.4c132.2 0 263.3-92.4 290.8-221.7l13.6-63.8C926.9 535.1 869.3 464 792.2 464h-23.1c-21.8 0-58.5-7.5-74-19.8-26-20.5-53.1-46.2-45.3-95.1z" fill="#FFFFFF" p-id="8673"></path><path d="M606.4 912H540c-94.8 0-172-77.2-172-172V559c0-64.1 6.3-128.4 18.8-191.3L412.2 240c6.4-32 23.8-61.1 49-81.8S518.4 126 551 126c57.9 0 99.6 30.3 120.9 87.6 9 24.4 11.1 50.8 6 76.6L665.6 352c-6.3 39.9 15 60.5 39.4 79.8 11.6 9.2 44 16.3 64.1 16.3h23.1c41.6 0 80.5 18.6 106.7 50.9 26.2 32.4 36.2 74.3 27.6 115l-13.6 63.8c-13.9 65.3-53.8 125.3-112.3 168.8-56.8 42.1-125.8 65.4-194.2 65.4zM551 158c-52.1 0-97.3 37.1-107.4 88.2L418.2 374C406.1 434.7 400 497 400 559v181c0 77.2 62.8 140 140 140h66.4c129.4 0 250.2-91.8 275.2-209l13.6-63.8c6.6-31.2-1.1-63.4-21.1-88.2-20.1-24.8-49.9-39-81.8-39h-23.1c-22 0-63.9-7.4-84-23.2-14.2-11.2-28.7-24-39.1-41.2-12.2-20.5-16.2-43-12-69l0.1-0.6 12.3-62.1c4-19.9 2.4-40.4-4.6-59.2-16.6-44.9-46.3-66.7-90.9-66.7z" fill="" p-id="8674"></path></svg>