<?xml version="1.0" standalone="no"?><!DOCTYPE svg PUBLIC "-//W3C//DTD SVG 1.1//EN" "http://www.w3.org/Graphics/SVG/1.1/DTD/svg11.dtd"><svg t="1536662139325" class="icon" style="" viewBox="0 0 1024 1024" version="1.1" xmlns="http://www.w3.org/2000/svg" p-id="2396" xmlns:xlink="http://www.w3.org/1999/xlink" width="32" height="24"><defs><style type="text/css"></style></defs><path d="M772.314019 556.222841a56.607236 56.607236 0 0 0-7.999609 0.489976H122.225762a56.657234 56.657234 0 0 0-7.999609-0.489976c-19.749036 0-68.996631 7.879615-66.096773 86.945754 12.349397 333.473717 345.803115 358.172511 345.803115 358.172511h98.675182s333.453718-24.698794 345.803115-358.172511c2.929857-79.066139-46.347737-86.945755-66.096773-86.945754z" fill="#FCCAC3" p-id="2397"></path><path d="M938.175921 511.39503c1.679918 0 10.229501 0.189991 13.889322 3.999804 4.159797 4.30979 8.689576 17.999121 7.789619 42.267936-13.269352 358.122514-354.372697 399.220507-386.731116 402.300357H450.97971c-13.599336-1.419931-101.775031-12.319398-189.460749-61.746985-125.233885-70.596553-191.660642-185.180958-197.410361-340.563371-0.899956-24.298814 3.629823-37.998145 7.789619-42.267936 3.659821-3.789815 12.209404-3.999805 13.889322-3.999805H86.997482a26.248718 26.248718 0 0 0 6.1397 0.61997h837.699097a26.148723 26.148723 0 0 0 6.129701-0.61997h1.209941m0-63.996875a73.31642 73.31642 0 0 0-10.359494 0.629969H96.147035a73.386417 73.386417 0 0 0-10.359494-0.629969C60.198791 447.408154-3.628093 457.607656 0.161722 560.022655c15.999219 431.978907 447.908129 463.977345 447.90813 463.977345h127.813759s431.908911-31.998438 447.908129-463.977345c3.789815-102.405-59.99707-112.614501-85.615819-112.614501z" fill="#FA7157" p-id="2398"></path><path d="M959.954857 480.04656a31.998438 31.998438 0 0 1-29.388565-44.597822c11.999414-28.078629 14.059314-51.367492 6.059704-69.196621-10.229501-22.778888-34.528314-31.74845-34.778301-31.818447A31.998438 31.998438 0 0 1 879.958763 304.065153c0-43.997852-11.149456-75.496314-33.16838-93.715424-34.638309-28.698599-88.135696-18.939075-88.68567-18.859079a32.128431 32.128431 0 0 1-37.598164-25.678746c-7.36964-40.678014-24.048826-68.786641-49.537581-83.56592-47.997656-27.748645-115.404365-4.279791-116.074332-3.999805a32.398418 32.398418 0 0 1-22.728891-0.39998c-134.993409-53.997363-230.848728 64.906831-234.868531 69.996582a32.218427 32.218427 0 0 1-21.998926 12.119408c-43.997852 4.399785-75.996289 18.489097-94.995362 41.887955-23.998828 29.558557-20.419003 66.196768-20.379005 66.55675A32.418417 32.418417 0 0 1 143.994699 299.845359C60.308785 347.683023 89.997336 426.759162 93.637158 435.628729a31.998438 31.998438 0 0 1-58.897124 24.998779C15.350981 415.379718 5.201476 317.304507 95.997043 254.527572c1.179942-22.548899 7.609628-59.167111 33.818348-91.995508 27.928636-34.998291 70.23657-56.72723 125.863855-64.646844 48.457634-54.797324 158.692251-129.523676 289.425868-83.54592 27.718647-7.689625 98.225204-21.71894 157.49231 12.309399 35.648259 20.469001 60.517045 53.787374 74.12638 99.255153 29.398565-0.299985 73.996387 4.889761 110.38461 34.728305 33.638358 27.568654 52.487437 68.906635 56.187257 123.053991 16.529193 9.699526 38.628114 27.248669 51.687476 56.347249 15.639236 34.828299 13.749329 75.416318-5.619726 120.61411a31.998438 31.998438 0 0 1-29.408564 19.399053z" fill="#FA7157" p-id="2399"></path><path d="M384.082976 322.064274a25.998731 25.998731 0 1 1 25.998731-25.99873 25.998731 25.998731 0 0 1-25.998731 25.99873z" fill="#FFEA75" p-id="2400"></path><path d="M384.082976 280.066325a15.999219 15.999219 0 1 1-15.999219 15.999219 15.999219 15.999219 0 0 1 15.999219-15.999219m0-19.999024a35.998242 35.998242 0 1 0 35.998242 35.998243 35.998242 35.998242 0 0 0-35.998242-35.998243z" fill="#FA7157" p-id="2401"></path><path d="M302.106979 386.05115a25.998731 25.998731 0 1 1 25.99873-25.998731 25.998731 25.998731 0 0 1-25.99873 25.998731z" fill="#FFEA75" p-id="2402"></path><path d="M302.106979 344.0632a15.999219 15.999219 0 1 1-15.999219 15.999219 15.999219 15.999219 0 0 1 15.999219-15.999219m0-19.999023a35.998242 35.998242 0 1 0 35.998242 35.998242 35.998242 35.998242 0 0 0-35.998242-35.998242z" fill="#FA7157" p-id="2403"></path><path d="M288.107662 250.06779a25.998731 25.998731 0 1 1 25.998731-25.998731 25.998731 25.998731 0 0 1-25.998731 25.998731z" fill="#FFEA75" p-id="2404"></path><path d="M288.107662 208.07984a15.999219 15.999219 0 1 1-15.999218 15.999219 15.999219 15.999219 0 0 1 15.999218-15.999219m0-19.999024a35.998242 35.998242 0 1 0 35.998243 35.998243 35.998242 35.998242 0 0 0-35.998243-35.998243z" fill="#FA7157" p-id="2405"></path><path d="M192.122349 410.049978a25.998731 25.998731 0 1 1 25.998731-25.998731 25.998731 25.998731 0 0 1-25.998731 25.998731z" fill="#FFEA75" p-id="2406"></path><path d="M192.122349 368.052029a15.999219 15.999219 0 1 1-15.999219 15.999218 15.999219 15.999219 0 0 1 15.999219-15.999218m0-19.999024a35.998242 35.998242 0 1 0 35.998242 35.998242 35.998242 35.998242 0 0 0-35.998242-35.998242z" fill="#FA7157" p-id="2407"></path><path d="M436.090437 416.049685a25.998731 25.998731 0 1 1 25.99873-25.99873 25.998731 25.998731 0 0 1-25.99873 25.99873z" fill="#FFEA75" p-id="2408"></path><path d="M436.090437 374.051736a15.999219 15.999219 0 1 1-15.999219 15.999219 15.999219 15.999219 0 0 1 15.999219-15.999219m0-19.999024a35.998242 35.998242 0 1 0 35.998242 35.998243 35.998242 35.998242 0 0 0-35.998242-35.998243z" fill="#FA7157" p-id="2409"></path><path d="M416.081414 202.080133a25.998731 25.998731 0 1 1 25.99873-25.998731 25.998731 25.998731 0 0 1-25.99873 25.998731z" fill="#FFEA75" p-id="2410"></path><path d="M416.081414 160.082183a15.999219 15.999219 0 1 1-15.999219 15.999219 15.999219 15.999219 0 0 1 15.999219-15.999219m0-19.999023a35.998242 35.998242 0 1 0 35.998242 35.998242 35.998242 35.998242 0 0 0-35.998242-35.998242z" fill="#FA7157" p-id="2411"></path><path d="M590.03292 462.057439a25.998731 25.998731 0 1 1 25.99873-25.998731 25.998731 25.998731 0 0 1-25.99873 25.998731z" fill="#FFEA75" p-id="2412"></path><path d="M590.03292 420.059489a15.999219 15.999219 0 1 1-15.999219 15.999219 15.999219 15.999219 0 0 1 15.999219-15.999219m0-19.999023a35.998242 35.998242 0 1 0 35.998242 35.998242 35.998242 35.998242 0 0 0-35.998242-35.998242z" fill="#FA7157" p-id="2413"></path><path d="M621.97136 326.054079a25.998731 25.998731 0 1 1 25.998731-25.99873 25.998731 25.998731 0 0 1-25.998731 25.99873z" fill="#FFEA75" p-id="2414"></path><path d="M621.97136 284.06613a15.999219 15.999219 0 1 1-15.999218 15.999218 15.999219 15.999219 0 0 1 15.999218-15.999218m0-19.999024a35.998242 35.998242 0 1 0 35.998243 35.998242 35.998242 35.998242 0 0 0-35.998243-35.998242z" fill="#FA7157" p-id="2415"></path><path d="M735.965794 250.06779a25.998731 25.998731 0 1 1 25.998731-25.998731 25.998731 25.998731 0 0 1-25.998731 25.998731z" fill="#FFEA75" p-id="2416"></path><path d="M735.965794 208.07984a15.999219 15.999219 0 1 1-15.999219 15.999219 15.999219 15.999219 0 0 1 15.999219-15.999219m0-19.999024a35.998242 35.998242 0 1 0 35.998243 35.998243 35.998242 35.998242 0 0 0-35.998243-35.998243z" fill="#FA7157" p-id="2417"></path><path d="M831.961107 410.049978a25.998731 25.998731 0 1 1 25.998731-25.998731 25.998731 25.998731 0 0 1-25.998731 25.998731z" fill="#FFEA75" p-id="2418"></path><path d="M831.961107 368.052029a15.999219 15.999219 0 1 1-15.999219 15.999218 15.999219 15.999219 0 0 1 15.999219-15.999218m0-19.999024a35.998242 35.998242 0 1 0 35.998242 35.998242 35.998242 35.998242 0 0 0-35.998242-35.998242z" fill="#FA7157" p-id="2419"></path><path d="M708.017159 396.050662a25.998731 25.998731 0 1 1 25.99873-25.998731 25.998731 25.998731 0 0 1-25.99873 25.998731z" fill="#FFEA75" p-id="2420"></path><path d="M708.017159 354.052712a15.999219 15.999219 0 1 1-15.999219 15.999219 15.999219 15.999219 0 0 1 15.999219-15.999219m0-19.999023a35.998242 35.998242 0 1 0 35.998242 35.998242 35.998242 35.998242 0 0 0-35.998242-35.998242z" fill="#FA7157" p-id="2421"></path><path d="M578.043505 172.081598a25.998731 25.998731 0 1 1 25.998731-25.998731 25.998731 25.998731 0 0 1-25.998731 25.998731z" fill="#FFEA75" p-id="2422"></path><path d="M578.043505 130.083648a15.999219 15.999219 0 1 1-15.999218 15.999219 15.999219 15.999219 0 0 1 15.999218-15.999219m0-19.999023a35.998242 35.998242 0 1 0 35.998243 35.998242 35.998242 35.998242 0 0 0-35.998243-35.998242z" fill="#FA7157" p-id="2423"></path><path d="M512.056727 330.063884a25.998731 25.998731 0 1 1 25.998731-25.998731 25.998731 25.998731 0 0 1-25.998731 25.998731z" fill="#FFEA75" p-id="2424"></path><path d="M512.056727 288.065934a15.999219 15.999219 0 1 1-15.999218 15.999219 15.999219 15.999219 0 0 1 15.999218-15.999219m0-19.999023a35.998242 35.998242 0 1 0 35.998243 35.998242 35.998242 35.998242 0 0 0-35.998243-35.998242z" fill="#FA7157" p-id="2425"></path><path d="M493.887614 825.449695a50.857517 50.857517 0 0 1-18.999072-3.669821c-4.169796-1.669918-26.318715-11.139456-50.267545-32.998389-31.73845-28.998584-52.317445-67.256716-59.527094-110.524603A51.142503 51.142503 0 1 1 465.978977 661.397705c7.949612 47.677672 45.167795 64.656843 47.467682 65.656794a51.137503 51.137503 0 0 1-19.519046 98.395196z" fill="#FFEA75" p-id="2426"></path><path d="M415.561439 643.668571a26.128724 26.128724 0 0 1 25.738743 21.838934c10.319496 61.906977 59.99707 83.575919 62.46695 84.605868a26.128724 26.128724 0 0 1-19.559045 48.457634c-3.229842-1.289937-79.136136-32.648406-94.435389-124.483921a26.168722 26.168722 0 0 1 25.798741-30.428515m0-49.997558a76.556262 76.556262 0 0 0-12.539388 0.999951 76.116283 76.116283 0 0 0-62.576945 87.605722c8.139603 48.837615 31.418466 91.995508 67.316713 124.863903 27.158674 24.848787 52.997412 35.868249 57.897173 37.828153a76.126283 76.126283 0 0 0 57.837176-140.743128 60.237059 60.237059 0 0 1-15.199258-11.359445c-9.399541-9.519535-15.349251-21.478951-17.699135-35.538265a76.126283 76.126283 0 0 0-75.056336-63.616893z" fill="#FA7157" p-id="2427"></path><path d="M282.147953 832.059372a50.927513 50.927513 0 0 1-27.818641-8.259597c-3.769816-2.439881-23.648845-15.999219-42.897906-42.17794-25.498755-34.638309-38.268131-76.126283-36.948196-119.994141a50.877516 50.877516 0 0 1 51.087506-49.577579h1.559924a51.487486 51.487486 0 0 1 8.409589 0.949953 50.99751 50.99751 0 0 1 41.137991 51.697476c-1.459929 48.32764 31.768449 72.206474 33.828349 73.626405a51.137503 51.137503 0 0 1-28.348616 93.695425z" fill="#FFEA75" p-id="2428"></path><path d="M225.560716 637.058894h0.799961A26.068727 26.068727 0 0 1 251.679441 663.96758c-1.889908 62.736937 42.637918 93.635428 44.85781 95.125355A26.128724 26.128724 0 0 1 267.988645 802.840799c-2.919857-1.889908-71.296519-47.387686-68.476657-140.443143a26.118725 26.118725 0 0 1 26.098726-25.338762m0-49.997559a76.116283 76.116283 0 0 0-76.076285 73.826395c-1.499927 49.487584 12.999365 96.365295 41.797959 135.553381 21.818935 29.648552 44.997803 45.477779 49.457585 48.34764a76.126283 76.126283 0 0 0 84.075894-126.913803 60.237059 60.237059 0 0 1-12.699379-14.089313c-7.36964-11.169455-10.889468-24.048826-10.45949-38.29813a76.066286 76.066286 0 0 0-73.786397-78.386172h-2.309887z" fill="#FA7157" p-id="2429"></path></svg>