<?xml version="1.0" standalone="no"?><!DOCTYPE svg PUBLIC "-//W3C//DTD SVG 1.1//EN" "http://www.w3.org/Graphics/SVG/1.1/DTD/svg11.dtd"><svg t="1535767751730" class="icon" style="" viewBox="0 0 1024 1024" version="1.1" xmlns="http://www.w3.org/2000/svg" p-id="1626" xmlns:xlink="http://www.w3.org/1999/xlink" width="40" height="40"><defs><style type="text/css"></style></defs><path d="M512 756.5m-180.5 0a180.5 180.5 0 1 0 361 0 180.5 180.5 0 1 0-361 0Z" fill="#FFCE00" p-id="1627"></path><path d="M796 656c-24.9 0-45-20.1-45-45V461c0-63.8-24.9-123.9-70-169-45.1-45.1-105.2-70-169-70s-123.9 24.9-169 70c-45.1 45.1-70 105.2-70 169v150c0 24.9-20.1 45-45 45s-45-20.1-45-45V461c0-44.4 8.7-87.5 25.9-128.1 16.6-39.2 40.3-74.4 70.5-104.6s65.4-53.9 104.6-70.5c40.5-17.1 83.6-25.8 128-25.8s87.5 8.7 128.1 25.9c39.2 16.6 74.4 40.3 104.6 70.5s53.9 65.4 70.5 104.6c17.1 40.5 25.8 83.6 25.8 128v150c0 24.9-20.1 45-45 45zM837 781H187c-24.9 0-45-20.1-45-45s20.1-45 45-45h650c24.9 0 45 20.1 45 45s-20.1 45-45 45z" fill="#242F44" p-id="1628"></path><path d="M512 374.9c-24.9 0-45-20.1-45-45V101.2c0-24.9 20.1-45 45-45s45 20.1 45 45v228.6c0 24.9-20.1 45.1-45 45.1z" fill="#242F44" p-id="1629"></path></svg>