<?xml version="1.0" standalone="no"?><!DOCTYPE svg PUBLIC "-//W3C//DTD SVG 1.1//EN" "http://www.w3.org/Graphics/SVG/1.1/DTD/svg11.dtd"><svg t="1539002098525" class="icon" style="" viewBox="0 0 1024 1024" version="1.1" xmlns="http://www.w3.org/2000/svg" p-id="3580" xmlns:xlink="http://www.w3.org/1999/xlink" width="20" height="20"><defs><style type="text/css"></style></defs><path d="M132.096 998.4c-9.216 0-18.432-3.072-25.6-10.24-14.336-14.336-14.336-36.864 0-50.176l306.176-306.176c14.336-14.336 36.864-14.336 50.176 0 14.336 14.336 14.336 36.864 0 50.176L156.672 988.16c-6.144 6.144-15.36 10.24-24.576 10.24z" fill="#FFA028" p-id="3581"></path><path d="M544.768 876.544H542.72c-12.288-1.024-22.528-8.192-27.648-19.456l-87.04-199.68-214.016-41.984c-12.288-2.048-21.504-11.264-24.576-22.528-3.072-11.264 1.024-24.576 9.216-32.768l162.816-144.384-26.624-216.064c-1.024-12.288 4.096-23.552 14.336-30.72 10.24-7.168 23.552-7.168 33.792-1.024l188.416 110.592 197.632-92.16c11.264-5.12 23.552-4.096 33.792 4.096 9.216 7.168 14.336 20.48 11.264 31.744L768 435.2l148.48 159.744c8.192 9.216 11.264 21.504 6.144 32.768s-14.336 19.456-26.624 20.48l-217.088 20.48L573.44 860.16c-6.144 10.24-16.384 16.384-28.672 16.384zM290.816 565.248l166.912 32.768c10.24 2.048 19.456 9.216 23.552 18.432l67.584 155.648 82.944-148.48c5.12-9.216 14.336-15.36 24.576-16.384l168.96-16.384-115.712-123.904c-7.168-8.192-10.24-18.432-8.192-28.672l36.864-165.888-154.624 71.68c-9.216 4.096-20.48 4.096-29.696-1.024L407.552 256l20.48 168.96c1.024 10.24-3.072 20.48-10.24 27.648l-126.976 112.64z" fill="#4C4C4C" p-id="3582"></path><path d="M582.656 187.392c-17.408 0-31.744-14.336-31.744-31.744v-47.104c0-17.408 14.336-31.744 31.744-31.744S614.4 90.112 614.4 108.544v47.104c0 17.408-14.336 31.744-31.744 31.744zM843.776 424.96c-15.36 0-28.672-10.24-31.744-25.6-3.072-17.408 8.192-33.792 25.6-37.888L956.416 337.92c17.408-3.072 33.792 8.192 37.888 25.6 3.072 17.408-8.192 33.792-25.6 37.888L849.92 423.936c-2.048 1.024-4.096 1.024-6.144 1.024zM820.224 900.096c-10.24 0-20.48-5.12-26.624-14.336l-95.232-142.336c-10.24-14.336-6.144-34.816 9.216-44.032 14.336-10.24 34.816-6.144 44.032 9.216L846.848 849.92c10.24 14.336 6.144 34.816-9.216 44.032-5.12 4.096-11.264 6.144-17.408 6.144z" fill="#4C4C4C" p-id="3583"></path></svg>