<?xml version="1.0" standalone="no"?><!DOCTYPE svg PUBLIC "-//W3C//DTD SVG 1.1//EN" "http://www.w3.org/Graphics/SVG/1.1/DTD/svg11.dtd"><svg t="1539166857283" class="icon" style="" viewBox="0 0 1024 1024" version="1.1" xmlns="http://www.w3.org/2000/svg" p-id="2682" xmlns:xlink="http://www.w3.org/1999/xlink" width="26" height="26"><defs><style type="text/css"></style></defs><path d="M701.661538 808.615385H108.430769v-54.153847h593.230769v54.153847zM108.430769 593.230769h593.230769v54.153846H108.430769v-54.153846z m593.230769-108.307692H108.430769v-54.153846h593.230769v54.153846zM231.507692 108.307692h470.153846v54.153846H231.507692V108.307692z m470.153846 215.384616H108.430769v-54.153846h593.230769v54.153846z m52.923077 646.153846V54.153846H54.276923v915.692308h700.307692l54.153847 54.153846H0.123077V0h808.615385v1024l-54.153847-54.153846z" fill="#507BEE" p-id="2683"></path><path d="M978.584615 112l-48.738461-48.738462 45.292308-45.292307 48.738461 48.738461L978.584615 112z m-17.353846 17.476923L682.707692 408 633.969231 359.261538 912.492308 80.738462l48.738461 48.738461z m-370.707692 323.692308l26.092308-76.553846 48.738461 48.738461-74.830769 27.815385z" fill="#FF8432" p-id="2684"></path></svg>