<?xml version="1.0" standalone="no"?><!DOCTYPE svg PUBLIC "-//W3C//DTD SVG 1.1//EN" "http://www.w3.org/Graphics/SVG/1.1/DTD/svg11.dtd"><svg t="1539165672163" class="icon" style="" viewBox="0 0 1024 1024" version="1.1" xmlns="http://www.w3.org/2000/svg" p-id="844" xmlns:xlink="http://www.w3.org/1999/xlink" width="26" height="26"><defs><style type="text/css"></style></defs><path d="M950.857143 0H73.142857C32.182857 0 0 32.182857 0 73.142857v877.714286c0 40.96 32.182857 73.142857 73.142857 73.142857h877.714286c40.96 0 73.142857-32.182857 73.142857-73.142857V73.142857c0-40.96-32.182857-73.142857-73.142857-73.142857zM731.428571 804.571429c0 7.314286-7.314286 14.628571-14.628571 14.628571s-14.628571-7.314286-14.628571-14.628571V277.942857h-73.142858v29.257143c0 7.314286-7.314286 14.628571-14.628571 14.628571s-14.628571-7.314286-14.628571-14.628571v-29.257143H424.228571v29.257143c0 7.314286-7.314286 14.628571-14.628571 14.628571s-14.628571-7.314286-14.628571-14.628571v-29.257143h-73.142858v512h308.662858c7.314286 0 13.165714 5.851429 13.165714 13.165714v1.462858c0 7.314286-5.851429 13.165714-13.165714 13.165714H305.737143c-7.314286 0-13.165714-5.851429-13.165714-13.165714V263.314286c0-7.314286 7.314286-14.628571 14.628571-14.628572h87.771429v-29.257143c0-7.314286 7.314286-14.628571 14.628571-14.628571s14.628571 7.314286 14.628571 14.628571v29.257143h175.542858v-29.257143c0-7.314286 7.314286-14.628571 14.628571-14.628571s14.628571 7.314286 14.628571 14.628571v29.257143h87.771429c7.314286 0 14.628571 7.314286 14.628571 14.628572v541.257143z m-117.028571-234.057143H409.6c-7.314286 0-14.628571-7.314286-14.628571-14.628572s7.314286-14.628571 14.628571-14.628571h204.8c7.314286 0 14.628571 7.314286 14.628571 14.628571s-7.314286 14.628571-14.628571 14.628572z m14.628571 102.4c0 7.314286-7.314286 14.628571-14.628571 14.628571H409.6c-7.314286 0-14.628571-7.314286-14.628571-14.628571s7.314286-14.628571 14.628571-14.628572h204.8c7.314286 0 14.628571 7.314286 14.628571 14.628572z m-14.628571-219.428572H409.6c-7.314286 0-14.628571-7.314286-14.628571-14.628571s7.314286-14.628571 14.628571-14.628572h204.8c7.314286 0 14.628571 7.314286 14.628571 14.628572s-7.314286 14.628571-14.628571 14.628571z" fill="#66B5FF" p-id="845"></path></svg>